PathFileType	4	(X/Y/Z)	C:\Users\Basilio\Documents\Thesis Gigler\squatting_fais\c3dfiles\044\SLS_back_pre2\markers_experimental.trc
DataRate	CameraRate	NumFrames	NumMarkers	Units	OrigDataRate	OrigDataStartFrame	OrigNumFrames
200.000000	200.000000	4	63	mm	200.000000	362	1449
Frame#	Time	FHD			LBHD			RBHD			C7			T10			LSHO			LUUPA			LMUPA			LDUPA			LLEP			LMEP			LUL			LRFIN			RSHO			RUPA1			RMUPA			RDUPA			RLEP			RMEP			RUL			LASI			RASI			USACR			LSACR			RSACR			LTHI1			LTHI2			LTHI3			LTHI4			LLFC			LMFC			LTIB1			LTIB2			LTIB3			LTIB4			LLMAL			LMMAL			LHEE			LMT1			LMT2			LMT5			RTHI			RTHI2			RTHI3			RTHI4			RLFC			RMFC			RTIB1			RTIB2			RTIB3			RTIB4			RLMAL			RMMAL			RHEE			RMT1			RMT2			RMT5			RUFIN			CLAV			LRAD			RRAD			*61			*62			
		X1	Y1	Z1	X2	Y2	Z2	X3	Y3	Z3	X4	Y4	Z4	X5	Y5	Z5	X6	Y6	Z6	X7	Y7	Z7	X8	Y8	Z8	X9	Y9	Z9	X10	Y10	Z10	X11	Y11	Z11	X12	Y12	Z12	X13	Y13	Z13	X14	Y14	Z14	X15	Y15	Z15	X16	Y16	Z16	X17	Y17	Z17	X18	Y18	Z18	X19	Y19	Z19	X20	Y20	Z20	X21	Y21	Z21	X22	Y22	Z22	X23	Y23	Z23	X24	Y24	Z24	X25	Y25	Z25	X26	Y26	Z26	X27	Y27	Z27	X28	Y28	Z28	X29	Y29	Z29	X30	Y30	Z30	X31	Y31	Z31	X32	Y32	Z32	X33	Y33	Z33	X34	Y34	Z34	X35	Y35	Z35	X36	Y36	Z36	X37	Y37	Z37	X38	Y38	Z38	X39	Y39	Z39	X40	Y40	Z40	X41	Y41	Z41	X42	Y42	Z42	X43	Y43	Z43	X44	Y44	Z44	X45	Y45	Z45	X46	Y46	Z46	X47	Y47	Z47	X48	Y48	Z48	X49	Y49	Z49	X50	Y50	Z50	X51	Y51	Z51	X52	Y52	Z52	X53	Y53	Z53	X54	Y54	Z54	X55	Y55	Z55	X56	Y56	Z56	X57	Y57	Z57	X58	Y58	Z58	X59	Y59	Z59	X60	Y60	Z60	X61	Y61	Z61	X62	Y62	Z62	X63	Y63	Z63	

363	1.81	-152.9559326171875	1781.786010742188	-1015.639221191406	-293.9013366699219	1758.360229492188	-1081.85302734375	-325.5274658203126	1741.002075195313	-919.4732055664065	-355.3830871582032	1559.956420898438	-1016.451293945313	-363.3258361816407	1259.165405273438	-1012.418884277344	-264.2113037109376	1581.244750976563	-1164.12353515625	-98.53163146972659	1562.427978515625	-1261.64404296875	-71.19748687744142	1572.51904296875	-1219.265380859375	-30.73123168945313	1558.666259765625	-1260.174560546875	31.04858207702637	1561.0830078125	-1253.508422851563	20.05014038085938	1483.098754882813	-1238.793579101563	284.5448303222657	1572.749389648438	-1129.990844726563	289.2396850585938	1593.21533203125	-1029.196166992188	-266.9919738769532	1559.443603515625	-855.8597412109377	-115.1622695922852	1538.210205078125	-752.5331420898439	-85.70755004882814	1555.7109375	-790.741882324219	-45.58486938476563	1541.009643554688	-747.3121948242189	15.64555168151856	1547.827392578125	-755.7465209960939	17.91634368896485	1466.292724609375	-768.6709594726565	269.4557189941407	1579.197265625	-879.4003906250002	-207.4345397949219	1052.441040039063	-1108.667602539063	-203.7958374023438	1042.054077148438	-891.4575195312502	-367.6488647460938	1116.335815429688	-995.672058105469	-376.7955627441407	1083.656127929688	-1021.265258789063	-374.5193481445313	1087.840576171875	-963.8988037109377	-292.0631408691407	812.7830200195315	-1168.284790039063	-255.6432800292969	736.7442626953126	-1162.177734375	-207.1412811279297	741.9321289062501	-1158.219970703125	-278.4380493164063	684.3854370117189	-1145.2705078125	-253.450424194336	527.3281250000001	-1119.727294921875	-249.8077392578126	532.3837280273439	-998.1589355468752	-242.9261779785157	356.5212097167969	-1030.18896484375	-270.6654357910157	305.5742187500001	-1097.074340820313	-240.6707763671876	304.9356994628907	-1058.441040039063	-264.4541625976563	232.3518981933594	-1022.715881347656	-325.3226013183594	119.2950057983399	-1059.511108398438	-306.4060974121094	129.7276153564453	-974.4484863281252	-388.7518310546876	98.48993682861331	-1008.814331054688	-181.5398864746094	56.95922088623048	-985.2383422851565	-179.6820983886719	60.38884353637697	-1032.283203125	-216.3226013183594	46.64118576049805	-1078.725341796875	-279.5122680664063	772.7698364257815	-805.740661621094	-230.5115203857422	724.5410766601564	-804.6795043945315	-200.2066040039063	729.6900634765626	-813.0312500000002	-247.0064086914063	641.7809448242189	-814.048522949219	-259.2384033203126	549.2128906250001	-820.6340942382815	-262.8647155761719	537.0336914062501	-936.7760009765627	-324.8086547851563	433.3036499023439	-837.0861816406252	-426.9085083007814	454.1185607910157	-802.2242431640627	-406.8437500000001	414.611053466797	-811.954284667969	-440.2408142089845	373.5527648925782	-835.694030761719	-607.3123168945314	332.1256713867188	-826.0379638671877	-578.0023803710939	314.6044616699219	-908.407897949219	-672.9687500000001	332.9098815917969	-882.1824340820315	-512.7619628906251	192.6866149902344	-871.7327880859377	-511.7149658203126	195.3101959228516	-833.681091308594	-561.4893188476564	205.0133361816407	-787.7627563476565	276.1837768554688	1559.459594726563	-996.3440551757815	-215.106430053711	1527.402465820313	-1019.685302734375	nan	nan	nan	nan	nan	nan	nan	nan	nan	nan	nan	nan	
364	1.815	-152.7583160400391	1781.708862304688	-1015.720458984375	-293.3614807128907	1758.224853515625	-1082.163818359375	-325.1859130859376	1740.965087890625	-919.7575683593752	-355.0327758789063	1559.953247070313	-1016.740051269531	-363.1694335937501	1259.097290039063	-1012.722229003906	-263.4796142578126	1581.22314453125	-1164.484130859375	-98.13877105712893	1562.440307617188	-1261.852416992188	-70.82686614990236	1572.587036132813	-1219.419311523438	-29.84570312500001	1559.086181640625	-1260.90234375	31.47353744506837	1561.139038085938	-1253.7705078125	20.24918746948243	1483.6240234375	-1238.762451171875	284.9398498535157	1573.044067382813	-1130.318115234375	289.4622802734376	1593.8984375	-1029.576904296875	-266.5845642089844	1559.23388671875	-856.047058105469	-114.7589721679688	1538.45947265625	-752.9187011718751	-85.30654907226564	1555.900146484375	-791.1330566406252	-45.14597320556641	1541.184448242188	-747.6773071289064	15.92642307281494	1547.9873046875	-756.1550292968751	18.09619331359864	1466.51953125	-768.491394042969	270.1704406738282	1579.392333984375	-879.886901855469	-207.3862915039063	1052.264404296875	-1108.843383789063	-203.8814239501954	1041.9482421875	-891.6612548828127	-367.7152404785157	1116.418701171875	-995.980163574219	-376.8038940429688	1083.643798828125	-1021.646057128906	-374.5079956054688	1087.870239257813	-964.2571411132815	-292.0504150390626	812.648864746094	-1168.580932617188	-255.4798736572266	736.6426391601564	-1162.444213867188	-206.9316101074219	741.7718505859376	-1158.507568359375	-278.2712707519532	684.3300170898439	-1145.548095703125	-253.3309326171876	527.2814331054689	-1119.97509765625	-249.8182067871094	532.3822021484376	-998.3555908203127	-242.8679199218751	356.5010070800782	-1030.322631835938	-270.5844421386719	305.5932006835938	-1097.161865234375	-240.4553527832032	304.9324645996094	-1058.76416015625	-264.4054870605469	232.2577667236329	-1022.892700195313	-325.3269042968751	119.2292404174805	-1059.501220703125	-306.4741821289063	129.7454986572266	-974.8625488281252	-388.756805419922	98.54026794433597	-1008.850769042969	-181.5002899169922	56.96492004394533	-985.1536254882815	-179.6152648925782	60.30129241943361	-1032.282470703125	-216.6545410156251	47.1071891784668	-1078.73583984375	-280.2534179687501	772.7764892578127	-805.9941406250002	-231.5651397705079	724.7929687500001	-805.1419677734377	-200.7593383789063	729.6630859375001	-813.0732421875002	-247.7187194824219	641.4644775390626	-813.586364746094	-260.0534057617188	549.2275390625001	-820.7073364257815	-263.4836730957032	537.0868530273439	-936.8348388671877	-326.2192077636719	433.494842529297	-837.147644042969	-428.6520080566407	455.9877319335939	-803.2381591796877	-408.897918701172	415.6559448242189	-812.6569824218752	-442.5862731933595	375.0242309570313	-835.950134277344	-609.6639404296876	335.0899658203126	-827.533630371094	-580.6418457031251	317.5509033203126	-909.973571777344	-675.5385742187501	337.0262145996094	-884.1294555664065	-517.3113403320314	194.4305877685547	-873.4097900390627	-514.9362792968751	197.1629180908204	-834.7690429687502	-565.6466064453126	207.3283843994141	-789.3258056640627	273.3554382324219	1561.384521484375	-996.7331542968752	-214.8167114257813	1527.245361328125	-1019.931396484375	nan	nan	nan	nan	nan	nan	nan	nan	nan	nan	nan	nan	
365	1.82	-152.4896697998047	1781.364624023438	-1015.849548339844	-292.9104919433594	1758.207397460938	-1082.4462890625	-325.0150451660157	1740.972045898438	-919.9765625000002	-354.7495727539063	1559.8671875	-1016.948608398438	-362.9648437500001	1259.107177734375	-1013.071228027344	-263.0782775878907	1581.221435546875	-1164.77734375	-97.81907653808597	1562.518432617188	-1262.066162109375	-70.42191314697267	1572.622314453125	-1219.629272460938	-29.55706977844239	1559.141845703125	-1261.055297851563	31.74093627929688	1561.261840820313	-1253.863403320313	20.46388816833496	1482.998168945313	-1239.03125	285.2830810546876	1573.132202148438	-1130.503051757813	289.8648681640626	1593.506225585938	-1029.694702148438	-266.1276855468751	1559.148803710938	-856.3394775390627	-114.3740615844727	1538.687866210938	-753.1798706054689	-84.91632080078126	1555.950439453125	-791.461608886719	-45.0205192565918	1541.267578125	-747.9982299804689	16.44446182250977	1548.178955078125	-756.6107177734376	18.42697143554688	1466.810668945313	-768.8193359375002	270.5121154785157	1579.72607421875	-880.1770019531252	-206.2041015625001	1052.7216796875	-1110.037475585938	-204.0814819335938	1041.714965820313	-891.8486328125002	-367.6187438964844	1116.421752929688	-996.350769042969	-376.7450561523438	1083.53125	-1022.031677246094	-374.5840759277344	1087.92724609375	-964.5850219726565	-291.6926879882813	812.5977172851565	-1169.107299804688	-255.2460174560547	736.4548339843751	-1162.825927734375	-206.7706451416016	741.6347656250001	-1158.687744140625	-278.1285400390626	684.2077636718751	-1145.790405273438	-253.4354095458985	527.5068359375001	-1120.185791015625	-249.7746582031251	532.3454589843751	-998.5087890625002	-242.8363037109376	356.4292297363282	-1030.467529296875	-270.3711547851563	305.4621887207032	-1097.292724609375	-240.2707977294922	304.9574279785157	-1059.100708007813	-264.4141845703126	232.2661895751954	-1023.049377441406	-325.2952575683594	119.2358932495117	-1059.55810546875	-306.6513977050782	129.510971069336	-975.141540527344	-388.7461853027345	98.59485626220706	-1008.878967285156	-181.9159088134766	57.60837936401369	-985.884216308594	-179.608627319336	60.18013381958009	-1032.279052734375	-216.3434448242188	46.45264434814454	-1078.85009765625	-280.8679504394532	772.791931152344	-806.2557373046877	-232.4911346435547	724.7307128906251	-805.2620849609377	-201.7440185546876	729.6945190429689	-813.0288085937502	-248.4070892333985	641.3411865234376	-813.5961914062502	-261.1350402832032	549.4174194335939	-820.6907348632815	-264.1781921386719	537.0740966796876	-936.926696777344	-327.9071655273438	434.321502685547	-837.909118652344	-430.5043029785157	457.3495483398439	-803.8094482421877	-410.8348693847657	417.1009216308595	-813.591979980469	-444.6239013671876	376.8631591796876	-836.8544921875002	-612.4675292968751	338.0293579101563	-829.015563964844	-583.1631469726564	320.8521118164063	-911.1074829101565	-677.7229614257814	340.7463073730469	-885.927917480469	-520.9663085937501	196.507308959961	-874.4487915039065	-519.3069458007814	199.1946868896485	-836.243103027344	-570.0638427734376	209.6276855468751	-790.9038085937502	270.3973388671876	1563.415283203125	-997.150329589844	-214.5355377197266	1527.125732421875	-1020.270568847656	nan	nan	nan	nan	nan	nan	nan	nan	nan	nan	nan	nan	
366	1.825	-151.7593994140625	1781.192749023438	-1016.164794921875	-292.3331604003907	1758.088989257813	-1082.672119140625	-324.6614074707032	1740.878173828125	-920.305114746094	-354.5595092773438	1559.779052734375	-1017.216064453125	-362.8088989257813	1259.078369140625	-1013.373291015625	-262.5625610351563	1581.281372070313	-1165.045532226563	-97.38433074951175	1562.644409179688	-1262.295288085938	-69.87866973876955	1572.668579101563	-1219.921630859375	-29.5853672027588	1558.890625	-1260.743530273438	32.33032226562501	1561.363403320313	-1254.1572265625	20.96906661987305	1483.080078125	-1239.3251953125	285.6987304687501	1573.31298828125	-1130.797729492188	290.5682678222657	1594.087280273438	-1030.224487304688	-265.7171936035157	1559.170532226563	-856.6844482421877	-113.8630065917969	1538.9248046875	-753.5610961914064	-84.63459777832033	1556.317993164063	-791.9829711914065	-44.53000640869141	1541.6279296875	-748.4023437500001	16.89856338500977	1548.544189453125	-757.0984497070314	18.74287414550782	1466.96875	-769.1083984375002	270.8067321777344	1579.880981445313	-880.3746337890627	-206.1402587890626	1052.53173828125	-1110.212158203125	-204.2212524414063	1041.679809570313	-892.0249023437502	-367.6477050781251	1116.4326171875	-996.6546020507815	-376.7932739257813	1083.612548828125	-1022.400756835938	-374.6826171875001	1087.984008789063	-964.8538818359377	-291.5178833007813	812.5180664062502	-1169.449462890625	-255.0651245117188	736.4332275390626	-1163.09375	-206.6696929931641	741.5979003906251	-1158.90869140625	-277.9636230468751	684.1217651367189	-1146.058227539063	-253.2499389648438	527.4185180664064	-1120.472045898438	-249.9352264404297	532.7260131835939	-998.8262939453127	-242.6727142333985	356.4588623046876	-1030.62353515625	-270.2277526855469	305.4338684082032	-1097.280639648438	-240.1636199951172	304.6672973632813	-1059.105590820313	-264.3463745117188	232.2691345214844	-1023.191284179688	-325.2923889160157	119.2195663452149	-1059.648559570313	-306.6235046386719	129.5611877441407	-975.1997070312502	-388.824676513672	98.62099456787112	-1008.885986328125	-181.5422515869141	57.19343948364259	-985.4392089843752	-179.7046661376953	59.99887084960939	-1032.355712890625	-216.3930816650391	46.34184646606446	-1078.880859375	-281.6886291503907	772.7778320312502	-806.756530761719	-232.7714538574219	724.3638305664064	-804.8479614257815	-202.439682006836	729.5845336914064	-813.0393676757815	-249.3867950439454	641.4702758789064	-813.7750244140627	-262.1426696777344	549.3621215820314	-820.789733886719	-264.7565002441407	537.1089477539064	-936.9575805664065	-330.0236206054688	434.8695678710939	-837.8546142578127	-431.9111328125001	458.8831176757814	-804.6340942382815	-412.8463439941407	418.1519775390626	-814.0656738281252	-446.9773559570314	378.4189758300782	-837.4000244140627	-615.2266845703126	341.3584594726563	-830.4578857421877	-585.5552368164064	323.2287597656251	-912.6121215820315	-679.9277954101564	344.6111145019532	-887.6105957031252	-524.8762207031251	198.9790496826172	-876.1729125976565	-523.8744506835939	200.7013854980469	-838.2517700195315	-573.9056396484376	211.848861694336	-792.5665283203127	269.3815612792969	1564.300903320313	-997.5164184570315	-214.1803131103516	1526.911254882813	-1020.501953125	nan	nan	nan	nan	nan	nan	nan	nan	nan	nan	nan	nan	
